<mxfile host="app.diagrams.net" modified="2023-12-14T03:43:45.210Z" agent="Mozilla/5.0 (Windows NT 10.0; Win64; x64) AppleWebKit/537.36 (KHTML, like Gecko) Chrome/120.0.0.0 Safari/537.36" etag="VtZ7cjyNPphEqGD28bgD" version="21.6.1" type="device">
  <diagram name="Page-1" id="KPHAm_sP1vOgVl94ga7j">
    <mxGraphModel dx="794" dy="454" grid="1" gridSize="10" guides="1" tooltips="1" connect="1" arrows="1" fold="1" page="1" pageScale="1" pageWidth="850" pageHeight="1100" math="0" shadow="0">
      <root>
        <mxCell id="0" />
        <mxCell id="1" parent="0" />
        <mxCell id="6dTuzQEWkkcZHfywe6-g-3" style="edgeStyle=orthogonalEdgeStyle;rounded=0;orthogonalLoop=1;jettySize=auto;html=1;entryX=0.5;entryY=1;entryDx=0;entryDy=0;" edge="1" parent="1" source="6dTuzQEWkkcZHfywe6-g-1" target="6dTuzQEWkkcZHfywe6-g-2">
          <mxGeometry relative="1" as="geometry" />
        </mxCell>
        <mxCell id="6dTuzQEWkkcZHfywe6-g-1" value="All Pass Filter" style="rounded=0;whiteSpace=wrap;html=1;" vertex="1" parent="1">
          <mxGeometry x="530" y="290" width="120" height="60" as="geometry" />
        </mxCell>
        <mxCell id="6dTuzQEWkkcZHfywe6-g-9" style="edgeStyle=orthogonalEdgeStyle;rounded=0;orthogonalLoop=1;jettySize=auto;html=1;" edge="1" parent="1" source="6dTuzQEWkkcZHfywe6-g-2">
          <mxGeometry relative="1" as="geometry">
            <mxPoint x="840" y="210" as="targetPoint" />
          </mxGeometry>
        </mxCell>
        <mxCell id="6dTuzQEWkkcZHfywe6-g-2" value="&lt;div style=&quot;&quot;&gt;&lt;span style=&quot;font-size: 25px; background-color: initial;&quot;&gt;+&lt;/span&gt;&lt;/div&gt;" style="ellipse;whiteSpace=wrap;html=1;aspect=fixed;align=center;" vertex="1" parent="1">
          <mxGeometry x="720" y="190" width="40" height="40" as="geometry" />
        </mxCell>
        <mxCell id="6dTuzQEWkkcZHfywe6-g-6" style="edgeStyle=orthogonalEdgeStyle;rounded=0;orthogonalLoop=1;jettySize=auto;html=1;entryX=0;entryY=0.5;entryDx=0;entryDy=0;" edge="1" parent="1" source="6dTuzQEWkkcZHfywe6-g-5" target="6dTuzQEWkkcZHfywe6-g-2">
          <mxGeometry relative="1" as="geometry" />
        </mxCell>
        <mxCell id="6dTuzQEWkkcZHfywe6-g-7" style="edgeStyle=orthogonalEdgeStyle;rounded=0;orthogonalLoop=1;jettySize=auto;html=1;entryX=0;entryY=0.5;entryDx=0;entryDy=0;" edge="1" parent="1" source="6dTuzQEWkkcZHfywe6-g-5" target="6dTuzQEWkkcZHfywe6-g-1">
          <mxGeometry relative="1" as="geometry" />
        </mxCell>
        <mxCell id="6dTuzQEWkkcZHfywe6-g-5" value="" style="ellipse;whiteSpace=wrap;html=1;aspect=fixed;" vertex="1" parent="1">
          <mxGeometry x="350" y="205" width="10" height="10" as="geometry" />
        </mxCell>
        <mxCell id="6dTuzQEWkkcZHfywe6-g-8" value="H(z)" style="text;html=1;align=center;verticalAlign=middle;resizable=0;points=[];autosize=1;strokeColor=none;fillColor=none;dashed=1;" vertex="1" parent="1">
          <mxGeometry x="330" y="175" width="50" height="30" as="geometry" />
        </mxCell>
        <mxCell id="6dTuzQEWkkcZHfywe6-g-10" value="R(z)" style="text;html=1;align=center;verticalAlign=middle;resizable=0;points=[];autosize=1;strokeColor=none;fillColor=none;dashed=1;" vertex="1" parent="1">
          <mxGeometry x="810" y="175" width="50" height="30" as="geometry" />
        </mxCell>
      </root>
    </mxGraphModel>
  </diagram>
</mxfile>
